# xmcd
#
# Track frame offsets: 
#        150
#        12520
#        27502
#        41120
#        63940
#        82755
#        97084
#        112335
#        139169
#        160503
#        178215
#        198917
#        218657
#        239770
#        280495
#        298143
#        312469
#        327087
#
# Disc length: 4547 seconds
#
# Revision: 5
# Processed by: cddbd v1.5.2PL0 Copyright (c) Steve Scherf et al.
# Submitted via: ExactAudioCopy v1.1
#
DISCID=1511c112
DTITLE=Syl Johnson - The Complete Syl Johnson On Hi Records [CD2]
DYEAR=2000
DGENRE=Rhythm and Blues
TTITLE0=Watch What You Do to Me
TTITLE1=Steppin' Out
TTITLE2=Take Me to the River
TTITLE3=It Ain't Easy
TTITLE4='Bout to Make Me Leave Home
TTITLE5=That's Just My Luck
TTITLE6=Come on Home
TTITLE7=Mystery Lady
TTITLE8=Let's Dance for Love
TTITLE9=Gimme Little Sign
TTITLE10=You're the Star of the Show
TTITLE11=Blue Water
TTITLE12=Who's Gonna Love You?
TTITLE13=Otis Redding Medley
TTITLE14=Fonk You
TTITLE15=That Wiggle
TTITLE16=Stand By Me
TTITLE17=Main Squeeze
EXTD=
EXTT0=
EXTT1=
EXTT2=
EXTT3=
EXTT4=
EXTT5=
EXTT6=
EXTT7=
EXTT8=
EXTT9=
EXTT10=
EXTT11=
EXTT12=
EXTT13=
EXTT14=
EXTT15=
EXTT16=
EXTT17=
PLAYORDER=
